<?xml version="1.0" encoding="utf-8"?>
<svg viewBox="0 1.75 60.093 60.093" xmlns="http://www.w3.org/2000/svg">
  <g transform="matrix(1, 0, 0, 1, -2.828456, -0.203036)">
    <path d="M39,8.5H25A16.5162,16.5162,0,0,0,8.5,25V39A16.5163,16.5163,0,0,0,25,55.5H39A16.5163,16.5163,0,0,0,55.5,39V25A16.5162,16.5162,0,0,0,39,8.5ZM32,42.94A10.94,10.94,0,1,1,42.94,32,10.9553,10.9553,0,0,1,32,42.94ZM46.03,21.57a1.8247,1.8247,0,0,1-.3.25,2.3221,2.3221,0,0,1-.35.18,1.5774,1.5774,0,0,1-.37.11,1.7221,1.7221,0,0,1-.39.04,2.193,2.193,0,0,1-.77-.15,2.2192,2.2192,0,0,1-.34-.18,2.45,2.45,0,0,1-.31-.25,2.0223,2.0223,0,0,1-.58-1.42,1.722,1.722,0,0,1,.04-.39,1.5774,1.5774,0,0,1,.11-.37,2.3087,2.3087,0,0,1,.18-.35,2.4768,2.4768,0,0,1,.25-.3,2.4239,2.4239,0,0,1,.31-.25,2.1932,2.1932,0,0,1,.34-.18,2.4016,2.4016,0,0,1,.38-.12,2.0031,2.0031,0,0,1,1.8.55,1.8058,1.8058,0,0,1,.25.3,2.3648,2.3648,0,0,1,.19.35,2.26,2.26,0,0,1,.11.37,2.5788,2.5788,0,0,1,.04.39A1.99,1.99,0,0,1,46.03,21.57ZM32,24.06A7.94,7.94,0,1,0,39.94,32,7.9465,7.9465,0,0,0,32,24.06Zm-.97,5.17A2.94,2.94,0,0,0,29.06,32a1.5,1.5,0,0,1-3,0,5.9376,5.9376,0,0,1,3.98-5.6,1.4991,1.4991,0,0,1,.99,2.83Z" style="fill: rgb(255, 239, 219);"/>
  </g>
</svg>