<svg id="Layer_1" data-name="Layer 1" xmlns="http://www.w3.org/2000/svg" viewBox="0 0 585.57 585.57"><defs><style>.cls-1{fill:#e1626f;}.cls-10,.cls-2{fill:#1d1d1b;}.cls-2,.cls-4{stroke:#1d1d1b;}.cls-2,.cls-3,.cls-4,.cls-5,.cls-9{stroke-miterlimit:10;}.cls-3{fill:#e71d73;stroke:#e6007e;}.cls-4{fill:none;stroke-width:0.5px;}.cls-5,.cls-7,.cls-9{fill:#e94e1b;}.cls-5{stroke:#fff;stroke-width:6px;}.cls-6{fill:#f39200;}.cls-8{fill:#fff;}.cls-9{stroke:#e94e1b;}.cls-10{font-size:12px;font-family:MyriadPro-Regular, Myriad Pro;}.cls-11{letter-spacing:-0.01em;}.cls-12{letter-spacing:-0.01em;}</style></defs><ellipse class="cls-1" cx="282.99" cy="263.89" rx="197.44" ry="207.22"/><path class="cls-2" d="M293.31,54c-19.51.28-36.25,2.11-52.77,6.33C198.63,71,163.37,92.34,135.41,125.43A194.19,194.19,0,0,0,104.59,176a182.94,182.94,0,0,0-12.48,43.37c-.58,3.83,1.33,6,4.57,6.59,3.92.76,3.28-2.84,3.91-5,3.78-13.2,6.45-26.84,11.5-39.53C126.18,146,149.21,117.25,181,96.22c34.43-22.77,72.48-34,114-32.75a181.57,181.57,0,0,1,49.88,8.18,195,195,0,0,1,64.36,34.44c24.11,19.55,42.29,43.64,53.55,72.44,5.58,14.28,8.81,29.5,12.84,44.37,1.08,4,2.55,4.36,6,2.62,4.4-2.21,3-5.76,2.15-8.7-4.36-14.59-8.28-29.38-13.79-43.55-9.28-23.91-23.91-44.56-42.16-62.51a194.66,194.66,0,0,0-63.15-41.34A204.66,204.66,0,0,0,293.31,54Z" transform="translate(-4.26 -3.16)"/><path class="cls-2" d="M471.78,227.74c-.25-2.21-.32-3.05-.45-3.88-5.82-37.38-21.57-70.12-47.17-97.79-25.38-27.43-57-44.92-93.13-53.66a179.31,179.31,0,0,0-82.71-.47c-27.24,6.17-52.07,17.45-74.09,34.5-34.09,26.39-56.33,60.71-66.67,102.63a159.4,159.4,0,0,0-3.35,16.74c-.18,1.32,1.79,2.95,2.77,4.43,1.11-1.17,2.85-2.18,3.2-3.55.83-3.23.65-6.72,1.49-9.94,7-26.87,17.34-52.08,34.91-74.08,29.8-37.32,68.66-58.91,115.28-66.52a169.92,169.92,0,0,1,80.95,6.31c35.06,11.44,64.6,30.91,87.17,60.31a175,175,0,0,1,35.2,83.94c.22,1.58,2,2.95,3.05,4.43Z" transform="translate(-4.26 -3.16)"/><path class="cls-2" d="M292.16,81.87c10.28,1.6,24.6,2.71,38.31,6.21,30.78,7.83,57.74,22.86,80.14,45.81C433.9,157.75,448.5,186,455,218.61c.89,4.44,1.38,9,2.35,13.37.21,1,1.69,1.68,2.58,2.51.65-1,1.75-2,1.85-3.13a23.72,23.72,0,0,0-.36-6.51c-3.92-20.38-10.12-39.89-20.32-58.15-20.6-36.91-51.1-62.35-90.14-77.32C318.63,77,285.29,74.05,251.15,81.7a177.52,177.52,0,0,0-81.77,42.14,170.14,170.14,0,0,0-51.6,85.81c-1.69,6.65-2.65,13.49-3.68,20.28-.17,1.14,1,2.49,1.56,3.75,1-1.13,2.48-2.12,2.85-3.43.64-2.21.36-4.68.84-7,4.83-23.21,12.8-45.14,26.46-64.76C180.34,108.91,228.51,84.9,292.16,81.87Z" transform="translate(-4.26 -3.16)"/><path class="cls-3" d="M411.13,197.07" transform="translate(-4.26 -3.16)"/><path class="cls-4" d="M348.93,195.85" transform="translate(-4.26 -3.16)"/><path class="cls-1" d="M297.05,588.73A292.78,292.78,0,0,1,90,88.92,292.78,292.78,0,1,1,504.07,503,290.83,290.83,0,0,1,297.05,588.73Z" transform="translate(-4.26 -3.16)"/><path class="cls-5" d="M297.05,557.38A261.43,261.43,0,0,1,112.19,111.09,261.42,261.42,0,1,1,481.9,480.8,259.7,259.7,0,0,1,297.05,557.38Z" transform="translate(-4.26 -3.16)"/><path class="cls-6" d="M297.05,526A230.07,230.07,0,0,1,134.36,133.26,230.07,230.07,0,0,1,459.73,458.63,228.55,228.55,0,0,1,297.05,526Z" transform="translate(-4.26 -3.16)"/><path class="cls-7" d="M371.87,173.66a14.74,14.74,0,0,1-4.27,15.83c-1.65,1.43-3.48,2.67-5.13,4.12-4,3.52-4.81,7.91-1.52,12.11,2.22,2.83,5.28,5,8.15,7.28s6.38,4,9.17,6.5c4.24,3.75,4.78,9,1.91,13.88-2.37,4.06-6.05,6.71-9.94,9.14a94.83,94.83,0,0,0-9.63,6.29c-7.13,5.76-8.12,13.41-3.06,21.08,3.35,5.07,8,8.75,12.89,12.22,4.65,3.31,9.47,6.53,13.55,10.47,8.51,8.2,8.59,18,.45,26.61-3.38,3.57-7.35,6.58-11,9.94-3.32,3.09-6.86,6-9.72,9.52-5.16,6.28-5,13.65.45,19.69a86.81,86.81,0,0,0,10.16,9.06c6.55,5.3,11.42,11.58,12.79,20.15.88,5.46,0,10.49-3.77,14.72C377,409.39,369.45,414,359.49,414c-5.49,0-11,.56-16,3.11a11.08,11.08,0,0,0-2.46,1.77c4.8-1,9.3.26,13.81,1.38,12.68,3.14,23.57.34,31.7-10.24,9.17-11.94,8.06-27.14-2.44-38.7-2.58-2.85-5.31-5.58-7.65-8.61a21.28,21.28,0,0,1-3.18-6.22,10.59,10.59,0,0,1,3.16-12c2.58-2.27,5.55-4.1,8.12-6.38,4.21-3.73,8.71-7.29,12.26-11.6,9.68-11.75,9.3-24.69-1.5-35.48-5.66-5.65-12.58-10.05-18.94-15-2.65-2.08-5.48-4-8-6.23-5.29-4.84-5.54-10.49-.45-15.58a35.19,35.19,0,0,1,8.07-5.5c2.6-1.42,5.54-2.17,8.22-3.44,8.76-4.13,11.71-12.68,7.5-21.43-2.17-4.53-5.71-7.81-9.7-10.67-2.61-1.87-5.36-3.58-7.8-5.65-4.44-3.77-4.24-7.8.4-11.31a44.42,44.42,0,0,1,3.78-2.37c6.37-3.89,8.68-9.83,5.85-16.74-1.6-3.91-4.15-7.42-6.33-11.22.49.11,1.51,0,1.94.48,4.56,5,8,10.5,7.16,17.69a13.2,13.2,0,0,1-6.7,10.22c-1.73,1.07-3.5,2.1-5.12,3.33-3.38,2.54-3.66,5.9-.47,8.74a83.73,83.73,0,0,0,7.63,5.47c6.06,4.29,10.95,9.44,12.27,17.1,1.06,6.21-.8,11.48-6,15-3.15,2.12-6.85,3.39-10.23,5.16-2.91,1.52-6,2.86-8.52,4.88-5.5,4.41-5.8,10.28-.47,14.85a165,165,0,0,0,15,10.87c5.91,4,11.88,7.9,16.4,13.59a24.28,24.28,0,0,1,.48,30.26A75.94,75.94,0,0,1,384,340a69.39,69.39,0,0,0-5.95,4.6c-4.17,3.64-5.36,8.15-3,13.11a47.24,47.24,0,0,0,5.67,8.3c1.79,2.27,4,4.19,5.87,6.42,8.2,9.89,9.91,21,4.54,32.52s-14.8,18-27.8,17.77c-4.87-.08-9.69-1.75-14.58-2.35a30.83,30.83,0,0,0-7.66.36c-1.12.15-2.13,1-3.2,1.6l.26.66c1.89-.22,4.12-2.12,5.27.69-1.4.86-3.26,1.38-3.89,2.56-.83,1.53-.72,3.58-.92,5.42a8.08,8.08,0,0,0,.29,1.85c.55,4.08,0,4.93-4.38,6.64a19.17,19.17,0,0,1,.4-3.67,20.67,20.67,0,0,0-1.17-15.55c-1.1-2.33-2.09-4.73-3-7.15-1.17-3.21.42-5.07,3.78-4.64a35.3,35.3,0,0,0,6.3.56,8.34,8.34,0,0,0,4.05-1.82c-5.46,2.23-10.65-2.17-16.14-.4-.57-2.32-1.14-4.5-1.63-6.7-.37-1.7.33-2.78,2.1-2.95q3.27-.29,6.55-.42c3.28-.13,6.63.18,9.83-.37,6.62-1.15,9.65-5.44,8.95-12.1-.38-3.58-1.27-7.12-1.41-10.7-.08-2.09.86-4.23,1.37-6.47-.64,1.28-1.77,2.59-1.88,4a95.77,95.77,0,0,0,.1,9.58,14,14,0,0,0,.27,1.38c1.21,8.67-2.6,13.14-11.37,13.33-2.19.05-4.4-.13-6.59,0-2.86.16-5.72.52-8.74.82-2.09-4.2-1.21-6.68,3.36-9.05a28.29,28.29,0,0,0,5.54-3.49,9.71,9.71,0,0,0,2.3-4.15c-3.18,5-9.33,5.36-13.42,8.83-2.11-4.23-4.14-8.43-6.29-12.55-2-3.72-2.38-7.52-.48-11.27a16.17,16.17,0,0,1,3.75-4.73c3.67-3.2,5.48-7,4.66-11.88s-.73-9.18,3.24-12.73a8.89,8.89,0,0,0-4.64,7.79c-.08,2.12.05,4.24.16,6.36a9,9,0,0,1-4,8.25,31.65,31.65,0,0,0-5.21,4c-1.55,1.72-2.59,3.91-4,6.08-5.16-5.85-13.4-6.36-20.91-9.08,2-4.32.4-8.25-1.35-12.12-1.19-2.65-2.48-5.24-3.74-7.85-1.9-3.92-1.92-8.07-1.21-12.21a11.27,11.27,0,0,1,6.12-8.74c-2.87.44-4.88,2.05-6.33,5.06-3,6.15-2.68,12.44-.69,18.78.93,3,2,5.94,2.79,9,1.31,4.94-.73,7.49-5.84,7.7-2.33.09-4.65.37-7.24.59,2-6.22-2-9.33-6.29-12.21-1.24-.83-2.52-1.58-3.78-2.37-7.5-4.69-9.18-13.22-4-20.46.49-.68,1-1.34,1.65-2.24-3.07,1.78-5.38,6.18-5.7,10.68a14.52,14.52,0,0,0,5,12.63c2.53,2.23,5.18,4.34,7.56,6.72,3.62,3.59,2.45,7.45-2.15,9.57A156.72,156.72,0,0,0,249.85,370c-3.1,1.86-3.79,2.16-6.85-.26-3.86-3-7.9-5.75-12.85-6.52-4.41-.69-8.91-.81-13.3-1.59-7.37-1.33-13-5.06-15.1-12.68-.62-2.27-.45-4.75-.62-6.92-2.2,4.77.47,12.35,4.93,16.3,4.3,3.8,9.39,5.38,14.94,6.23a67.93,67.93,0,0,1,11.34,2.75c3.21,1.08,5.51,3.56,7.28,6.44a11.15,11.15,0,0,1,1.11,10.34c-.39,1-.76,2.06-1.09,3.1-1.19,3.69-1.19,3.77-5,3.56a41.54,41.54,0,0,1-6.28-.83c-3.29-.71-5-2-7.09-4.93a6.81,6.81,0,0,0,5.39,6.21c2.56.7,5.23,1,7.82,1.62,3.5.82,4,1.53,4.09,5.14,0,1.57-.06,3.14-.13,4.7-.1,2-1,3-3.16,2.76a11.47,11.47,0,0,0-9.55,3.63c-7.54,7.46-17.34,1.4-19.16-5.88-.13-.52-.29-1-.51-1.84a12.87,12.87,0,0,0,6.32,12.07,11.77,11.77,0,0,0,13.09-.61c1.16-.79,2.15-1.83,3.25-2.7,2.62-2.07,5.16-2.23,7.82-.52,1.21.78,2.34,1.62,2.07,3.35-2,12.71,1.78,24.35,6.73,35.76.37.86.68,1.75,1,2.62,0,0-.08.12-.31.41l-2.35-4.42c-1.23.23-2.33.45-3,.58.26-1.79.88-3.36.62-4.77a13,13,0,0,0-4.57-8c-2.36-1.9-3.68-1.41-4.42,1.51-.1.36-.22.72-.48,1.56-1.55-6.62-7-5.56-11.17-6.17-4.46-.65-9.06-.43-13.6-.54-7-.17-13.68-1.53-19.61-5.57-9.93-6.77-11.25-17.82-2.71-26.2,3.66-3.59,8.16-6.32,12.18-9.56a51.51,51.51,0,0,0,7.31-6.58c4.89-5.79,3-11.07-4.36-12.86-4.63-1.13-9.37-1.86-14-3-6.59-1.58-12.68-4.16-16.9-9.84-3.42-4.61-3.87-9.68-1.81-14.93,2.21-5.59,6.28-9.7,11.17-13,5.77-3.91,11.68-7.63,17.33-11.69a20.9,20.9,0,0,0,5-5.53c2.79-4.24,1.75-8.67-2.88-10.82a47.84,47.84,0,0,0-11-3.26c-14.93-2.9-25.07-15.63-24.06-30.76.42-6.39,3.31-11.83,7.41-16.69,5.1-6,11.8-9.7,18.85-12.88,3.78-1.71,7.66-3.25,11.27-5.27,6.88-3.85,7.22-10.71.68-15.15-3.34-2.27-7.16-3.85-10.73-5.78-6.92-3.74-9.67-10.34-6.83-17.68a23.5,23.5,0,0,1,5.39-8.36c3-2.83,6.63-5,10.16-7.1,3.2-1.95,6.77-3.32,9.92-5.35,3-1.94,5.67-4.4,8.5-6.61.58-.46,1.23-.84,1.85-1.26l.64.81c-2.44,2.12-4.67,4.57-7.37,6.27-4.83,3.05-10.09,5.41-14.88,8.51a47.56,47.56,0,0,0-10.11,8.26C182,196,181.08,206.76,192.72,212a65.7,65.7,0,0,1,8.48,4.54,14.09,14.09,0,0,1,3.9,4c3.08,4.58,2.28,9.5-2.39,12.48-3.74,2.38-7.9,4.1-11.88,6.1-8.26,4.12-15.59,9.39-20.7,17.27-10.57,16.3-2.55,36.25,16.33,40.73,2.59.61,5.19,1.2,7.75,1.93a19.69,19.69,0,0,1,4.12,1.68c4.92,2.73,6.22,7.09,3.72,12.17a22.71,22.71,0,0,1-8.29,8.8c-4,2.68-8.24,5.15-12.34,7.75-4.27,2.71-8.19,5.81-11,10.1-5,7.58-3.37,16.48,4,21.82,5.37,3.91,11.7,5.08,18,6.47a85.57,85.57,0,0,1,10.88,2.82c4.38,1.59,5.86,5.31,4.4,9.73a17.82,17.82,0,0,1-6.69,8.58c-3.76,2.83-7.73,5.38-11.42,8.28a35.76,35.76,0,0,0-6,5.91c-4.14,5.27-4.11,11.59-.09,17,4.13,5.54,10,8.21,16.58,9.33,3,.51,6.06.6,9.44.91a102,102,0,0,1-8.88-5.51c-9-6.9-11.45-18.57-6.27-28a18.64,18.64,0,0,1,9.84-8.33c2.69-1.09,5.41-2.09,8-3.31,3.58-1.66,6.5-4.06,6.46-8.43a9.75,9.75,0,0,0-5.83-9,54.56,54.56,0,0,0-12.27-3.65c-5.81-1.1-11.2-2.83-15.79-6.72-6.37-5.4-8.63-12.84-4.91-19a23,23,0,0,1,7.44-7.25c3.89-2.4,8.29-4,12.58-5.73,5.32-2.12,10.17-4.88,13.92-9.31,6-7.08,4.47-15-3.91-18.93-3.51-1.67-7.37-2.59-11.06-3.89-11.11-3.93-18.38-11.49-21-23.06-1.79-8,.86-14.68,7.25-19.83,4.47-3.6,9.84-5.4,15.08-7.49a137.64,137.64,0,0,0,15.86-7c2.82-1.56,5.17-4.29,7.19-6.92,2.63-3.43,2.25-6.36-1.26-9-4.43-3.34-9.23-6.18-13.87-9.24-4.18-2.76-7.9-6-10.1-10.59-3-6.33-1.72-12.89,4-16.94,4-2.82,8.51-4.94,12.89-7.19,9.51-4.87,12.1-6.4,13.89-9.41,1-1.65.69-1.91,1.93-3.91,3.47-5.58,6.89-5.48,7.79-8.49,1.13-3.8-3.83-5.6-5-12-.93-5.35,1.49-9.89,3.19-13.08" transform="translate(-4.26 -3.16)"/><path class="cls-7" d="M254,463.48c5.2,2.13,10.44,1.59,15.81.57,7.31-1.39,14.67-2.65,22.06-3.67,3.13-.43,6.41-.07,9.62-.14,4.6-.09,9.31.18,13.79-.47,9.88-1.45,15-6.53,15.6-14.67.13-1.65.43-3.28.68-4.92,0-.23.23-.43.67-.6,0,1.05,0,2.09,0,3.14,0,2,1.35,3.31,3.63,4a5.51,5.51,0,0,0,5.73-1.22c1.8-1.74,3.4-3.6,5.33-5.67-.14,3.42-2,5.72-5.15,7.4-2.71,1.44-5.51,2.59-8.8.55-.47,5.4-4.3,9.54-7,14-9.43,15.86-16.05,32.4-19,49.87a108.56,108.56,0,0,0,.5,39.37,13.57,13.57,0,0,1,.11,1.42l-.65.3a17,17,0,0,1-2-2.24c-2.75-4.57-3.89-9.51-4.7-14.5-2.47-15.18-1.57-30.35.36-45.52.63-5,1.55-10,2.07-15,.7-6.8-4.74-11.13-13.15-10.3-6.6.65-13.1,2-19.7,2.54a38.23,38.23,0,0,1-10.41-.59c-2.16-.42-4-2-6-3.06Z" transform="translate(-4.26 -3.16)"/><path class="cls-7" d="M284.72,430.64c1.2-1.6,2.69-1.3,4.18-.57,4.89,2.38,8.57,6.21,12.24,10-1.59,3.45-5.05,4.91-9.53,4.32a29.4,29.4,0,0,0-7-.41c-2,.22-3.95,1.33-6,1.86a22.08,22.08,0,0,1-5.87,1c-.76,0-2.22-1.68-2.1-2.38.82-4.94,2.58-9.5,6.66-12.79a4.24,4.24,0,0,1,4.77-.83c.72.31,1.77-.11,2.66-.19-.9.44-1.84,1.32-2.66,1.22-2.75-.36-4.23,1.33-6,3,1.58.09,3,.26,4.34.23,2.12-.06,4.24-.23,6.35-.41a5.64,5.64,0,0,0,1.53-.47c.76-.3,1.5-.65,2.25-1a8.56,8.56,0,0,0-1.95-1.61A30.45,30.45,0,0,0,284.72,430.64Zm8.07,8.07c-6.11-2.38-11.19.88-17,2.06l3.62,2.15c.05-.24.15-.66.25-1.08C281.47,443.19,290,441.21,292.79,438.71Zm-14.34-2,.14.92,10.13-1.49-.13-.85Z" transform="translate(-4.26 -3.16)"/><path class="cls-7" d="M242.55,409.78l1.19-2.28c1.82.19,4.74-1.11,5-1.9,2.1,0,4.9.78,5.58-.09,1.25-1.63,2.65-1.18,3.93-1.37a23.46,23.46,0,0,1,7.18-.26c2,.33,3.77,1.68,6.11,2.8-1.14.25-1.85.37-2.55.55-3.09.8-6.19,1.58-9.26,2.43-2.64.73-5.21,1.75-7.88,2.28C248.51,412.6,245,413.19,242.55,409.78Z" transform="translate(-4.26 -3.16)"/><path class="cls-7" d="M289.15,404.61c1.76-1.67,3.1-3.34,4.81-4.43,1.19-.76,2.88-.76,4.36-1,1.72-.31,3.45-.56,5.18-.81a6.13,6.13,0,0,1,2.8.5c2.13.89,2.88-.47,3.93-1.6.72,1.56,3.94,2,6.35.81-.15.64-.27,1.12-.39,1.6l1.71.38a7.19,7.19,0,0,1-6.81,4.49c-2.73.12-5.46.08-8.2.09Z" transform="translate(-4.26 -3.16)"/><path class="cls-7" d="M241.6,397.32a9.77,9.77,0,0,1,5.8-6.19c5.82-2.53,12-2.74,18.2-2.42a3.69,3.69,0,0,1,2.13.88,7.9,7.9,0,0,1,1.22,2.13c-.71.35-1.42,1-2.13,1-4.62,0-9.23-.19-13.84-.12A15,15,0,0,0,241.6,397.32Z" transform="translate(-4.26 -3.16)"/><path class="cls-7" d="M317.05,387.68c-4.66-2.41-9.44-1.89-14.2-.77-3.5.83-6.92,2-10.41,2.77-.82.19-1.8-.35-2.71-.55a12.47,12.47,0,0,1,1.1-2.68,2.84,2.84,0,0,1,1.79-1c5-.76,10-1.72,15-2A10.28,10.28,0,0,1,317.05,387.68Z" transform="translate(-4.26 -3.16)"/><path class="cls-7" d="M345.7,430.12c1.62,4.12-.86,6.71-3.64,9.71Z" transform="translate(-4.26 -3.16)"/><path class="cls-7" d="M344.26,420.84c3.61-.63,5.65,3,3.8,7.33C347.33,425.33,347.87,422,344.26,420.84Z" transform="translate(-4.26 -3.16)"/><path class="cls-7" d="M283.9,419.29c3.11-1.6,4.11-1.33,5.29,1.09C287.18,421.74,285.93,419.77,283.9,419.29Z" transform="translate(-4.26 -3.16)"/><path class="cls-7" d="M280.74,419.3l-4.49,3.57C275.73,419.8,276.75,419,280.74,419.3Z" transform="translate(-4.26 -3.16)"/><path class="cls-7" d="M292.79,438.71c-2.79,2.5-11.32,4.48-13.08,3.13-.1.42-.2.84-.25,1.08l-3.62-2.15C281.6,439.59,286.68,436.33,292.79,438.71Z" transform="translate(-4.26 -3.16)"/><path class="cls-7" d="M284.72,430.64a30.45,30.45,0,0,1,3.92,1,8.56,8.56,0,0,1,1.95,1.61c-.75.33-1.49.68-2.25,1a5.64,5.64,0,0,1-1.53.47c-2.11.18-4.23.35-6.35.41-1.38,0-2.76-.14-4.34-.23,1.75-1.7,3.23-3.39,6-3,.82.1,1.76-.78,2.66-1.22Z" transform="translate(-4.26 -3.16)"/><path class="cls-7" d="M278.45,436.74l10.14-1.42.13.85-10.13,1.49Z" transform="translate(-4.26 -3.16)"/><path class="cls-8" d="M181.47,201h15V179.78a6.28,6.28,0,0,1,2-4.69,6.83,6.83,0,0,1,8.3-.86,6.76,6.76,0,0,1,2.47,2.75l3.89,3.88a6.55,6.55,0,0,1,1.34,1.94,5.62,5.62,0,0,1,.49,2.37v64.14a5.92,5.92,0,0,1-1.89,4.42,6.45,6.45,0,0,1-9,0l-4-4a5.92,5.92,0,0,1-2.59-2.32,6.53,6.53,0,0,1-1-3.5V216.65h-15v32.66a6,6,0,0,1-1.88,4.42,6.22,6.22,0,0,1-4.48,1.83,6.11,6.11,0,0,1-4.52-1.83l-4-4a5.92,5.92,0,0,1-2.59-2.32,6.45,6.45,0,0,1-1-3.5V179.78a6.31,6.31,0,0,1,1.94-4.69,6.83,6.83,0,0,1,8.3-.86,6.86,6.86,0,0,1,2.48,2.75l3.88,3.88A6.77,6.77,0,0,1,181,182.8a5.77,5.77,0,0,1,.48,2.37Zm27.27,40.1V179.78a5.19,5.19,0,0,0-1.67-3.88,5.67,5.67,0,0,0-7.92,0,5.29,5.29,0,0,0-1.62,3.88V202.1h-22.2V179.78a5.22,5.22,0,0,0-1.67-3.88,5.48,5.48,0,0,0-3.94-1.61,5.41,5.41,0,0,0-4,1.61,5.32,5.32,0,0,0-1.61,3.88v64.14a5.3,5.3,0,0,0,1.61,3.88,5.42,5.42,0,0,0,4,1.62,5.49,5.49,0,0,0,3.94-1.62,5.21,5.21,0,0,0,1.67-3.88V210.5h22.2v33.42a5.27,5.27,0,0,0,1.62,3.88,5.65,5.65,0,0,0,7.92,0,5.17,5.17,0,0,0,1.67-3.88Zm-2.15-61.34a3.17,3.17,0,0,0-1-2.37,3.43,3.43,0,0,0-2.42-1,3.38,3.38,0,0,0-2.48,1,3.22,3.22,0,0,0-1,2.37v24.47H173.17V179.78a3.16,3.16,0,0,0-1-2.37,3.45,3.45,0,0,0-2.43-1,3.4,3.4,0,0,0-2.48,1,3.26,3.26,0,0,0-1,2.37v64.14a3.23,3.23,0,0,0,1,2.37,3.36,3.36,0,0,0,2.48,1,3.41,3.41,0,0,0,2.43-1,3.13,3.13,0,0,0,1-2.37V208.35h26.52v35.57a3.19,3.19,0,0,0,1,2.37,3.35,3.35,0,0,0,2.48,1,3.38,3.38,0,0,0,2.42-1,3.13,3.13,0,0,0,1-2.37Z" transform="translate(-4.26 -3.16)"/><path class="cls-8" d="M218.12,221.5a6.29,6.29,0,0,1,1.94-4.69,6.52,6.52,0,0,1,4.74-1.88,6.3,6.3,0,0,1,3.51,1,7,7,0,0,1,2.42,2.64l3.88,3.88a8.66,8.66,0,0,1,1.73,3.56H247q4.53,0,4.53-4.53v-5H238.6a11.4,11.4,0,0,1-4.47-.92,11.82,11.82,0,0,1-3.94-2.64l-3.55-3.55a10.18,10.18,0,0,1-3.45-3.35,33.63,33.63,0,0,1-4.21-7.7,15.63,15.63,0,0,1-.86-4.26V179.78a6.62,6.62,0,0,1,6.68-6.68,6.23,6.23,0,0,1,3.51,1,7,7,0,0,1,2.42,2.64l3.88,3.88a6.15,6.15,0,0,1,1.83,4.52v15.74h15.1V179.78a6.61,6.61,0,0,1,6.68-6.68,6.19,6.19,0,0,1,3.5,1,6.94,6.94,0,0,1,2.43,2.74l3.66,3.67c0-.07,0-.11-.05-.11s-.06,0-.06-.11l.33.33a6.15,6.15,0,0,1,1.83,4.52v53.36a15.16,15.16,0,0,1-.81,4.15,32.51,32.51,0,0,1-4.15,7.6,11.14,11.14,0,0,1-4.31,3.88,11.83,11.83,0,0,1-5.5,1.4H238.6a11.24,11.24,0,0,1-3.13-.43,9.57,9.57,0,0,1-5.17-3L227,248.88a13.4,13.4,0,0,1-3.77-3.77A33.85,33.85,0,0,1,219,237.4a15.56,15.56,0,0,1-.86-4.26Zm1.08,0v11.64c0,.51,0,1.05.05,1.62a7.45,7.45,0,0,0,.54,2.1,29.19,29.19,0,0,0,1.46,3.07,47.43,47.43,0,0,0,2.8,4.53A10.37,10.37,0,0,0,230.3,249a12.31,12.31,0,0,0,1.45.32,9.93,9.93,0,0,0,1.46.11H249.7a10.84,10.84,0,0,0,5.23-1.3,10.4,10.4,0,0,0,3.94-3.66,51.93,51.93,0,0,0,2.8-4.53,28.83,28.83,0,0,0,1.45-3.07,7.13,7.13,0,0,0,.54-2.1q.06-.85.06-1.62V179.78a5.38,5.38,0,0,0-1.62-4,5.29,5.29,0,0,0-3.88-1.62,5.52,5.52,0,0,0-5.6,5.6V202H235.91q-5.61,0-5.61-5.5V179.78a5.38,5.38,0,0,0-1.62-4,5.27,5.27,0,0,0-3.88-1.62,5.53,5.53,0,0,0-5.6,5.6v14.34c0,.5,0,1,.05,1.62a7.54,7.54,0,0,0,.54,2.1,29.19,29.19,0,0,0,1.46,3.07,46.21,46.21,0,0,0,2.8,4.53,10.48,10.48,0,0,0,3.93,3.67,11.08,11.08,0,0,0,5.23,1.28h19.41V221.5q0,5.61-5.61,5.61h-11.1q-5.61,0-5.61-5.61a5.53,5.53,0,0,0-5.5-5.5,5.38,5.38,0,0,0-4,1.62A5.29,5.29,0,0,0,219.2,221.5Zm2.15,11.64q0,.65.06,1.35a6.53,6.53,0,0,0,.48,1.83,23.38,23.38,0,0,0,1.35,2.8,46.56,46.56,0,0,0,2.64,4.15,8.64,8.64,0,0,0,2.16,2.38,7.07,7.07,0,0,0,2.8,1.29l-.11-.11a11.15,11.15,0,0,0,1.4.33,7,7,0,0,0,1.08.1H249.7a8.86,8.86,0,0,0,7.33-4q1.73-2.47,2.65-4.15a23.09,23.09,0,0,0,1.34-2.8,7,7,0,0,0,.49-1.83c0-.47.05-.92.05-1.35V179.78a3.32,3.32,0,0,0-1-2.47,3.23,3.23,0,0,0-2.37-1,3.34,3.34,0,0,0-3.45,3.45v24.36H235.91c-5.18,0-7.77-2.54-7.77-7.65V179.78a3.35,3.35,0,0,0-1-2.47,3.24,3.24,0,0,0-2.38-1,3.34,3.34,0,0,0-3.45,3.45v14.34q0,.65.06,1.35a6.7,6.7,0,0,0,.48,1.83,23.38,23.38,0,0,0,1.35,2.8,46.56,46.56,0,0,0,2.64,4.15,8.5,8.5,0,0,0,3.18,2.91,8.59,8.59,0,0,0,4.15,1.08h21.56V221.5q0,7.75-7.76,7.76h-11.1q-7.77,0-7.77-7.76a3.3,3.3,0,0,0-3.34-3.34,3.36,3.36,0,0,0-2.48,1,3.26,3.26,0,0,0-1,2.37Z" transform="translate(-4.26 -3.16)"/><path class="cls-8" d="M276.54,249.74a5.92,5.92,0,0,1-2.59-2.32,6.74,6.74,0,0,1-1-3.61v-64a6.62,6.62,0,0,1,6.69-6.68h24.9a11.83,11.83,0,0,1,5.71,1.4,13,13,0,0,1,4.42,4l.22.43,3.45,3.34a13.06,13.06,0,0,1,1.51,1.84,46.47,46.47,0,0,1,2.8,4.57,32.17,32.17,0,0,1,1.45,3.18,9.87,9.87,0,0,1,.6,2.27,16.14,16.14,0,0,1,.1,1.73v3.87a13.27,13.27,0,0,1-.1,1.62,11,11,0,0,1-.6,2.21,27.89,27.89,0,0,1-1.45,3.23,46.43,46.43,0,0,1-2.8,4.59,11.91,11.91,0,0,1-9.92,5.17H291.42V249.2a6.05,6.05,0,0,1-1.89,4.53,6.45,6.45,0,0,1-9,0Zm42.15-59.28v-.11a13.63,13.63,0,0,0-.11-1.62,10.48,10.48,0,0,0-.54-2.1,20.41,20.41,0,0,0-1.45-3.07c-.69-1.22-1.6-2.7-2.75-4.43a11.39,11.39,0,0,0-4-3.66,11,11,0,0,0-5.23-1.29h-24.9a5.53,5.53,0,0,0-5.61,5.6v64a5.53,5.53,0,0,0,5.61,5.61,5.45,5.45,0,0,0,3.93-1.62,5.29,5.29,0,0,0,1.67-4V210.39h19.3a11.08,11.08,0,0,0,5.23-1.28,11.79,11.79,0,0,0,4-3.56c1.15-1.73,2.06-3.2,2.75-4.42A19.4,19.4,0,0,0,318,198a11.36,11.36,0,0,0,.54-2.15,12.9,12.9,0,0,0,.11-1.51Zm-2.16-.11a8,8,0,0,0-.11-1.35,9.63,9.63,0,0,0-.53-1.83,20.58,20.58,0,0,0-1.35-2.75c-.61-1.08-1.46-2.44-2.53-4.1h.1a9.47,9.47,0,0,0-3.28-2.91,9,9,0,0,0-4.26-1.08h-24.9a3.34,3.34,0,0,0-3.45,3.45v64a3.32,3.32,0,0,0,3.45,3.45,3.38,3.38,0,0,0,2.42-1,3.27,3.27,0,0,0,1-2.48V208.24h21.45a8.84,8.84,0,0,0,4.26-1.08,9.37,9.37,0,0,0,3.28-2.91l-.1.11c1.07-1.65,1.92-3,2.53-4.15a24.14,24.14,0,0,0,1.35-2.8,9.91,9.91,0,0,0,.53-1.84,7.17,7.17,0,0,0,.11-1.23Zm-6.89,6.14q0,7.77-7.66,7.76H283.12V180.43H302q7.65,0,7.66,7.76Zm-2.16,0q0,5.61-5.5,5.61H285.27V182.59H302q5.5,0,5.5,5.6Zm-1.08-7.76h-15V201H302q4.42,0,4.42-4.53Z" transform="translate(-4.26 -3.16)"/><path class="cls-8" d="M344.78,181.18l16.49,23.29V179.78a6.54,6.54,0,0,1,1.89-4.74,6.27,6.27,0,0,1,4.68-1.94,6.18,6.18,0,0,1,3.61,1.08,7.62,7.62,0,0,1,2.43,2.69l3.88,3.88a6,6,0,0,1,1.83,4.42v64a6.25,6.25,0,0,1-6.36,6.36,6,6,0,0,1-4.42-1.83l-3.87-3.88a7.07,7.07,0,0,1-2.64-2.43,6.37,6.37,0,0,1-1-3.61v-19.4l-15.09-21.34V249.2a6.25,6.25,0,0,1-6.36,6.36,6,6,0,0,1-4.42-1.83l-3.88-3.88a7.07,7.07,0,0,1-2.64-2.43,6.37,6.37,0,0,1-1-3.61v-64a6.54,6.54,0,0,1,1.89-4.74,6.29,6.29,0,0,1,4.69-1.94,6.72,6.72,0,0,1,2.8.54,7.12,7.12,0,0,1,2.37,1.94l.76,1.19,4.09,4Zm28.67,59.94V179.78a5.45,5.45,0,0,0-1.62-3.93,5.34,5.34,0,0,0-4-1.67,5.24,5.24,0,0,0-3.88,1.67,5.48,5.48,0,0,0-1.61,3.93v29.76l-23.72-33.42a5.43,5.43,0,0,0-8.08-.27,5.45,5.45,0,0,0-1.62,3.93v64a5.39,5.39,0,0,0,1.62,4,5.29,5.29,0,0,0,3.88,1.62,5.53,5.53,0,0,0,5.61-5.61V192.5L362.35,224v19.83a5.42,5.42,0,0,0,1.61,4,5.3,5.3,0,0,0,3.88,1.62,5.53,5.53,0,0,0,5.61-5.61Zm-2.15-61.34a3.39,3.39,0,0,0-1-2.42,3.23,3.23,0,0,0-2.48-1,3.09,3.09,0,0,0-2.36,1,3.39,3.39,0,0,0-1,2.42v36.54l-27.59-38.91a3.46,3.46,0,0,0-2.48-1.08,3.11,3.11,0,0,0-2.37,1,3.38,3.38,0,0,0-1,2.42v64a3.33,3.33,0,0,0,1,2.48,3.21,3.21,0,0,0,2.37,1,3.32,3.32,0,0,0,3.45-3.45v-58.1l26.62,37.62v20.48a3.34,3.34,0,0,0,1,2.48,3.18,3.18,0,0,0,2.36,1,3.34,3.34,0,0,0,3.46-3.45Z" transform="translate(-4.26 -3.16)"/><path class="cls-8" d="M391.35,248.45a10.34,10.34,0,0,1-3.45-3.34,33.85,33.85,0,0,1-4.21-7.71,15.56,15.56,0,0,1-.86-4.26V190.46a14.47,14.47,0,0,1,1.08-4.37,42.18,42.18,0,0,1,4-7.6,11.37,11.37,0,0,1,4.41-3.93,12.1,12.1,0,0,1,5.61-1.46h16.39a12.27,12.27,0,0,1,5.71,1.46,11.4,11.4,0,0,1,4.42,3.93c0,.07.07.18.21.32l3.56,3.56a11.61,11.61,0,0,1,1.4,1.73q1.72,2.58,2.75,4.42a21.24,21.24,0,0,1,1.51,3.23,11.28,11.28,0,0,1,.59,2.37,14.07,14.07,0,0,1,.11,1.73v42.68a15.16,15.16,0,0,1-.81,4.15,32.51,32.51,0,0,1-4.15,7.6,11.14,11.14,0,0,1-4.31,3.88,12,12,0,0,1-5.61,1.4H403.31a11.56,11.56,0,0,1-4.47-.91A12,12,0,0,1,394.9,252Zm37.08-23.18V190.46c0-.51,0-1-.06-1.62a7.05,7.05,0,0,0-.54-2.1,27.93,27.93,0,0,0-1.45-3.07,48.62,48.62,0,0,0-2.81-4.54,10.3,10.3,0,0,0-4-3.66,11.29,11.29,0,0,0-5.28-1.29H397.92a11,11,0,0,0-5.23,1.29,10.45,10.45,0,0,0-3.93,3.66,48.62,48.62,0,0,0-2.81,4.54,29.92,29.92,0,0,0-1.45,3.07,7.37,7.37,0,0,0-.54,2.1c0,.58,0,1.11,0,1.62v42.68c0,.51,0,1.05,0,1.62a7.45,7.45,0,0,0,.54,2.1,31,31,0,0,0,1.45,3.07,50,50,0,0,0,2.81,4.53,10.38,10.38,0,0,0,3.93,3.66,10.87,10.87,0,0,0,5.23,1.3h16.39a11.18,11.18,0,0,0,5.28-1.3,10.23,10.23,0,0,0,4-3.66,50,50,0,0,0,2.81-4.53,28.83,28.83,0,0,0,1.45-3.07,7.13,7.13,0,0,0,.54-2.1q.06-.85.06-1.62Zm-2.16-34.81c0-.43,0-.89-.06-1.35a6.53,6.53,0,0,0-.48-1.83,23.86,23.86,0,0,0-1.34-2.81q-.93-1.66-2.65-4.15a8.58,8.58,0,0,0-3.18-2.91,8.89,8.89,0,0,0-4.25-1.08H397.92a8.71,8.71,0,0,0-4.15,1.08,8.58,8.58,0,0,0-3.18,2.91q-1.72,2.49-2.64,4.15a24.16,24.16,0,0,0-1.35,2.81,6.53,6.53,0,0,0-.48,1.83c0,.46-.06.92-.06,1.35v42.68q0,.65.06,1.35a6.53,6.53,0,0,0,.48,1.83,23.38,23.38,0,0,0,1.35,2.8,46.56,46.56,0,0,0,2.64,4.15,8.86,8.86,0,0,0,7.33,4h16.39a8.77,8.77,0,0,0,4.25-1.07,8.52,8.52,0,0,0,3.18-2.92q1.72-2.47,2.65-4.15a23.09,23.09,0,0,0,1.34-2.8,6.53,6.53,0,0,0,.48-1.83q.06-.7.06-1.35Zm-6.79,31q0,7.75-7.76,7.76h-11.1q-7.77,0-7.77-7.76V188.08q0-7.65,7.77-7.65h11.1q7.75,0,7.76,7.65Zm-2.16,0c0,3.74-1.86,5.61-5.6,5.61h-11.1q-5.61,0-5.61-5.61V188.08q0-5.49,5.61-5.49h11.1c3.74,0,5.6,1.83,5.6,5.49V221.5Zm-1.07-32.77H406q-4.85,0-4.85,4.74V226h10.57q4.53,0,4.53-4.53Z" transform="translate(-4.26 -3.16)"/><path class="cls-8" d="M239.73,312.42q4.05,0,4.05-4.15V278.13H222.93a4.06,4.06,0,0,1-3.26-1.38L216,273.09a4.25,4.25,0,0,1-2.07-1.68,4.88,4.88,0,0,1,.63-6.13,4.78,4.78,0,0,1,3.41-1.39h31.93a6,6,0,0,1,3.26.95,6.25,6.25,0,0,1,2.27,2.51l3.56,3.57a5.81,5.81,0,0,1,1.23,1.77,5.2,5.2,0,0,1,.45,2.17v49a14.05,14.05,0,0,1-.74,3.81,30.42,30.42,0,0,1-3.81,7,11.41,11.41,0,0,1-6.22,4.45,14.25,14.25,0,0,1-2.87.29H232a10.13,10.13,0,0,1-4.35-1,13.17,13.17,0,0,1-3.66-2.58L221.15,333a9.08,9.08,0,0,1-3.36-3.06,33.57,33.57,0,0,1-2.57-4.15c-.59-1.19-1.06-2.22-1.39-3.07a9.22,9.22,0,0,1-.59-2.18c-.06-.59-.1-1.12-.1-1.57V308.27a6.12,6.12,0,0,1,9.39-5.18,6.11,6.11,0,0,1,2.27,2.51l3.46,3.46a7,7,0,0,1,1.78,3.36Zm0,1H229.45q-5,0-5-5.14a4.91,4.91,0,0,0-1.53-3.66,5,5,0,0,0-3.61-1.48,5,5,0,0,0-3.66,1.48,5,5,0,0,0-1.48,3.66V319c0,.45,0,.95.05,1.48a6.47,6.47,0,0,0,.5,1.93,28.21,28.21,0,0,0,1.33,2.81,45.75,45.75,0,0,0,2.57,4.15,9.8,9.8,0,0,0,3.66,3.27,10.4,10.4,0,0,0,4.84,1.18h15a12.63,12.63,0,0,0,2.67-.3,10.25,10.25,0,0,0,5.83-4.15,45.75,45.75,0,0,0,2.57-4.15,30.67,30.67,0,0,0,1.33-2.81,6.79,6.79,0,0,0,.5-1.93c0-.53,0-1,0-1.48v-49a4.76,4.76,0,0,0-1.53-3.56,5,5,0,0,0-3.6-1.49H218a3.79,3.79,0,0,0-2.71,1.09,3.67,3.67,0,0,0-1.14,2.77,3.55,3.55,0,0,0,1.14,2.67,3.74,3.74,0,0,0,2.71,1.08h26.79v35.78Q244.77,313.41,239.73,313.41Zm-10.28,2c-4.68,0-7-2.36-7-7.11a3,3,0,0,0-.93-2.27,3.14,3.14,0,0,0-2.23-.9,3.06,3.06,0,0,0-3.16,3.17V319c0,.39,0,.8,0,1.23a6.85,6.85,0,0,0,.45,1.68,21.16,21.16,0,0,0,1.24,2.57,40,40,0,0,0,2.42,3.8,7.61,7.61,0,0,0,2.86,2.63,8.44,8.44,0,0,0,4,.93h15a11.15,11.15,0,0,0,2.27-.3l-.19.11a8.58,8.58,0,0,0,4.74-3.37,44.53,44.53,0,0,0,2.42-3.8,22.78,22.78,0,0,0,1.24-2.57,6.33,6.33,0,0,0,.44-1.68c0-.43,0-.84,0-1.23v-49a2.87,2.87,0,0,0-.94-2.18,3.15,3.15,0,0,0-2.22-.89H218a1.83,1.83,0,0,0-1.33.55,1.8,1.8,0,0,0-.54,1.33,1.65,1.65,0,0,0,.54,1.28,1.91,1.91,0,0,0,1.33.5h28.76v37.75c0,4.75-2.34,7.11-7,7.11Z" transform="translate(-4.26 -3.16)"/><path class="cls-8" d="M267.2,334.07a5.41,5.41,0,0,1-2.37-2.13,5.88,5.88,0,0,1-.89-3.21v-58.8a5.76,5.76,0,0,1,1.78-4.31,6,6,0,0,1,4.34-1.73,5.74,5.74,0,0,1,3.22.95,6.53,6.53,0,0,1,2.22,2.42l3.56,3.56a5.69,5.69,0,0,1,1.68,4v58.81A5.74,5.74,0,0,1,275,339.4a5.62,5.62,0,0,1-4.15-1.68Zm7.91-53.87V269.93a5.09,5.09,0,0,0-5.05-5.05,5,5,0,0,0-3.65,1.49,4.83,4.83,0,0,0-1.49,3.56v58.8a4.87,4.87,0,0,0,1.49,3.56,5,5,0,0,0,3.65,1.48,5.07,5.07,0,0,0,5.05-5Zm-2-10.27a3,3,0,0,0-3.07-3.07,3.08,3.08,0,0,0-2.27.89,3,3,0,0,0-.89,2.18v58.8a3,3,0,0,0,.89,2.17,3.08,3.08,0,0,0,2.27.89,3,3,0,0,0,2.18-.89,3,3,0,0,0,.89-2.17Z" transform="translate(-4.26 -3.16)"/><path class="cls-8" d="M307.12,312.42a6.74,6.74,0,0,0,6.72-6.72V269.93a5.76,5.76,0,0,1,1.78-4.31,6,6,0,0,1,4.35-1.73,5.68,5.68,0,0,1,3.21.95,6.37,6.37,0,0,1,2.22,2.42l3.56,3.56c-.06,0-.1,0-.1-.06s0-.05-.09-.05l.19.11a6.11,6.11,0,0,1,1.68,3.75V311a16.16,16.16,0,0,1-.1,1.68,22,22,0,0,1-.74,3.31q-.65,2.33-2,6.52c-.93,2.81-2.21,6.57-3.86,11.31a7.86,7.86,0,0,1-3.06,4.06A8.38,8.38,0,0,1,316,339.4H303.07a8.2,8.2,0,0,1-6-2.47l-3.46-3.36a8.77,8.77,0,0,1-3.65-4.55q-2.39-6.61-3.71-10.77t-2-6.62c-.42-1.64-.7-2.87-.84-3.65a12.16,12.16,0,0,1-.19-1.89V269.63a6.16,6.16,0,0,1,1.87-4.1,5.87,5.87,0,0,1,4.25-1.64,5.74,5.74,0,0,1,3.22.95,6.53,6.53,0,0,1,2.22,2.42l3.56,3.56a5.68,5.68,0,0,1,1.23,1.82,5.58,5.58,0,0,1,.45,2.22v35.79a7,7,0,0,0,.1,1.48,6.13,6.13,0,0,0,2,.29Zm0,1h-5a7.77,7.77,0,0,1-7.71-7.71V269.93a5.06,5.06,0,0,0-8.54-3.66,5.28,5.28,0,0,0-1.64,3.36v36.46a15.88,15.88,0,0,0,.11,1.59,21,21,0,0,0,.74,3.26c.42,1.52,1.08,3.67,2,6.47s2.19,6.57,3.9,11.32a7.24,7.24,0,0,0,2.77,3.65,7.53,7.53,0,0,0,4.45,1.39h12.95a7.5,7.5,0,0,0,4.44-1.39,7.24,7.24,0,0,0,2.77-3.65c1.65-4.75,2.93-8.51,3.85-11.32s1.6-5,2-6.47a21,21,0,0,0,.74-3.26,15.41,15.41,0,0,0,.1-1.59V269.63a5.22,5.22,0,0,0-1.63-3.36,4.74,4.74,0,0,0-3.41-1.39,5,5,0,0,0-3.66,1.49,4.86,4.86,0,0,0-1.48,3.56V305.7a7.75,7.75,0,0,1-7.71,7.71Zm-5,2a9.6,9.6,0,0,1-9.68-9.68V269.93a3.15,3.15,0,0,0-5.29-2.23,3.18,3.18,0,0,0-.94,2v36.36a12.14,12.14,0,0,0,.15,1.64,27.32,27.32,0,0,0,.84,3.36c.46,1.54,1.14,3.67,2,6.37s2.09,6.23,3.6,10.57a6.56,6.56,0,0,0,2.13,2.67,5.13,5.13,0,0,0,3.21,1.09h12.95a5.17,5.17,0,0,0,3.21-1.09,6.62,6.62,0,0,0,2.12-2.67q2.28-6.51,3.61-10.57c.89-2.7,1.55-4.83,2-6.37s.71-2.67.85-3.36a9.33,9.33,0,0,0,.19-1.64V269.63a3.57,3.57,0,0,0-1-1.93,2.73,2.73,0,0,0-2-.84,3.08,3.08,0,0,0-2.27.89,2.93,2.93,0,0,0-.89,2.18V305.7a9.61,9.61,0,0,1-9.69,9.68Z" transform="translate(-4.26 -3.16)"/><path class="cls-8" d="M350.31,289.4h21.15a4.81,4.81,0,0,1,2.72.83,4.53,4.53,0,0,1,1.73,2.23l3.65,3.56a4.8,4.8,0,0,1,1,1.43,4.06,4.06,0,0,1,.4,1.73,4.56,4.56,0,0,1-4.55,4.54H350.31v8.7h19.86a6,6,0,0,1,3.26.94,6.23,6.23,0,0,1,2.28,2.52l3.56,3.56a5.4,5.4,0,0,1,1.68,3.95v10.28a5.45,5.45,0,0,1-1.73,4.05,5.7,5.7,0,0,1-4.1,1.68H344.48a5.63,5.63,0,0,1-4.15-1.68l-3.66-3.65a5.41,5.41,0,0,1-2.37-2.13,6,6,0,0,1-.89-3.21V270a6.09,6.09,0,0,1,6.13-6.13h31.92a4.69,4.69,0,0,1,2.67.8,4.93,4.93,0,0,1,1.78,2.08l3.65,3.65a4.85,4.85,0,0,1,1,1.44,4.38,4.38,0,0,1-.94,5,4.45,4.45,0,0,1-3.21,1.29H350.31Zm-5.63,16v-7.31h26.78a3.85,3.85,0,0,0,2.72-6.57,3.71,3.71,0,0,0-2.72-1.13H344.68v-17.9h26.78a3.78,3.78,0,0,0,2.72-1.08,3.57,3.57,0,0,0,1.13-2.67,3.7,3.7,0,0,0-1.13-2.77,3.83,3.83,0,0,0-2.72-1.09H339.54A5.07,5.07,0,0,0,334.4,270v58.71a4.86,4.86,0,0,0,1.48,3.56,5,5,0,0,0,3.66,1.48h30.63a5,5,0,0,0,3.61-1.48,4.79,4.79,0,0,0,1.53-3.56V318.45a4.78,4.78,0,0,0-1.53-3.56,5,5,0,0,0-3.61-1.48H344.68v-8Zm26.78-9.29a1.8,1.8,0,0,0,1.34-.54,1.86,1.86,0,0,0,.54-1.33,1.88,1.88,0,0,0-.54-1.34,1.84,1.84,0,0,0-1.34-.54H342.7V270.52h28.76a1.94,1.94,0,0,0,1.34-.5,1.68,1.68,0,0,0,.54-1.28,1.86,1.86,0,0,0-1.88-1.88H339.54a3.06,3.06,0,0,0-3.17,3.16v58.71a2.86,2.86,0,0,0,.95,2.17,3.25,3.25,0,0,0,2.32.89h30.53a3.15,3.15,0,0,0,2.23-.89,2.88,2.88,0,0,0,.94-2.17V318.45a2.88,2.88,0,0,0-.94-2.17,3.12,3.12,0,0,0-2.23-.9H342.7V296.11Z" transform="translate(-4.26 -3.16)"/><path class="cls-9" d="M371.87,173.66a56,56,0,0,0-17.25-21.28c-6-4.39-10.35-5.5-19.09-9.8-20-9.85-23.59-12.39-26.56-16.51-4.27-5.9-7.52-8.3-5.68-16.5s-38.16-.32-38.16-.32l-4.57,1.86a65.82,65.82,0,0,0-23.83,18Z" transform="translate(-4.26 -3.16)"/><path class="cls-8" d="M304,79.31a209.54,209.54,0,0,1,73,15.82,198.77,198.77,0,0,1,64.56,42.27c18.67,18.35,33.62,39.46,43.11,63.91,5.63,14.48,9.64,29.6,14.09,44.52.9,3,2.31,6.63-2.2,8.89-3.54,1.78-5,1.41-6.15-2.67-4.11-15.2-7.42-30.76-13.12-45.37-11.51-29.44-30.11-54.07-54.75-74.06a199.38,199.38,0,0,0-65.8-35.21,185.87,185.87,0,0,0-51-8.37c-42.43-1.32-81.33,10.21-116.54,33.49-32.49,21.5-56,50.85-70.44,87-5.17,13-7.9,26.92-11.77,40.42-.64,2.25,0,5.93-4,5.15-3.32-.64-5.27-2.82-4.67-6.74A187.11,187.11,0,0,1,111,204.05a199,199,0,0,1,31.51-51.66C171.13,118.56,207.18,96.73,250,85.78,266.92,81.47,284,79.6,304,79.31Z" transform="translate(-4.26 -3.16)"/><path class="cls-8" d="M486.45,257l-3.63,3.47c-1.08-1.51-2.9-2.91-3.12-4.53a178.86,178.86,0,0,0-36-85.82c-23.07-30.06-53.27-50-89.12-61.66A173.78,173.78,0,0,0,271.82,102c-47.66,7.79-87.39,29.85-117.85,68-18,22.49-28.54,48.27-35.7,75.74-.86,3.29-.67,6.86-1.52,10.16-.36,1.4-2.14,2.43-3.27,3.63-1-1.52-3-3.17-2.84-4.53a163.91,163.91,0,0,1,3.43-17.11C124.65,195.05,147.38,160,182.24,133c22.51-17.43,47.89-29,75.74-35.27a183.34,183.34,0,0,1,84.57.48c37,8.93,69.26,26.82,95.21,54.86C463.94,181.34,480,214.82,486,253,486.12,253.88,486.19,254.73,486.45,257Z" transform="translate(-4.26 -3.16)"/><path class="cls-7" d="M302.81,107.86c-65.08,3.1-114.33,27.65-149.64,78.37-14,20.06-22.11,42.48-27,66.22-.48,2.33-.2,4.85-.85,7.12-.38,1.33-1.91,2.34-2.92,3.49-.57-1.28-1.77-2.66-1.59-3.83,1-6.94,2-13.93,3.76-20.72a173.94,173.94,0,0,1,52.76-87.74,181.34,181.34,0,0,1,83.6-43.08c34.9-7.83,69-4.82,102,7.85,39.92,15.3,71.1,41.32,92.16,79.05,10.43,18.66,16.77,38.62,20.78,59.45a24.39,24.39,0,0,1,.36,6.66c-.1,1.11-1.22,2.13-1.88,3.19-.92-.84-2.43-1.56-2.65-2.55-1-4.52-1.49-9.14-2.39-13.68-6.63-33.32-21.56-62.22-45.37-86.62C401,137.58,373.45,122.22,342,114.2,328,110.63,313.32,109.5,302.81,107.86Z" transform="translate(-4.26 -3.16)"/><path class="cls-7" d="M408.2,507.37c.13-7.17,2.5-12.88,4.44-17.56,1.39-3.34,4.73-10.59,10.44-16.36,3.11-3.15,4.65-3.57,13.09-8,7.1-3.73,12.17-6.38,17.54-9.86a148.83,148.83,0,0,0,16.68-12.77,146.41,146.41,0,0,0,15.82-15.7c5.38-6.24,9.85-11.42,14.57-20.25A77.34,77.34,0,0,0,509,386.13c1.13-5,2.91-12.89,1.35-21.3-1.78-9.56-6.67-13.44-8.15-14.56-5.86-4.45-11.93-2.23-14.37-1.28a22.13,22.13,0,0,0-10.1,7.41c-4.4,5.56-5.4,11.17-9.1,21.73-3.29,9.38-6.17,15.4-11.92,27.45a220.83,220.83,0,0,1-15.06,27.61,151.94,151.94,0,0,1-19.08,23.67c-10,10.38-18.18,15.89-26,21.13a162,162,0,0,1-33.63,17.26,128.84,128.84,0,0,1-29.46,7.1l-1.26-5.74a138.17,138.17,0,0,0,29.6-9,144.82,144.82,0,0,0,29.11-16.19c11.6-8.28,18.66-13.33,26.91-24.48a136.89,136.89,0,0,0,17.64-33.37,169.09,169.09,0,0,0,7.68-29.07,177.14,177.14,0,0,0,2.48-24.61c.58-14.43-.94-14.69-.46-29.12.39-11.49.77-20.84,4.75-31.22A62.36,62.36,0,0,1,456.52,287c7.51-10.82,15.56-13.8,19-15.06,7.53-2.78,13-1.21,19.05.64,5.73,1.75,17.63,5.63,27.77,21.19,3.35,5.13,9.19,14.34,11.84,30.59a101.38,101.38,0,0,1,.77,28.39c-1.93,17.42-7.64,30.16-11.47,38.52a129.09,129.09,0,0,1-23.58,35.07c-4.8,5.32-13.87,15.38-26.3,23-4.35,2.67-9.67,5.4-16.53,12.41-7.18,7.34-9.67,12.85-10.78,15.65-1.36,3.47-4.38,11.14-3.17,19.24" transform="translate(-4.26 -3.16)"/><path class="cls-7" d="M191.3,511.57c-.12-7.16-2.49-12.88-4.44-17.55a52.38,52.38,0,0,0-10.5-16.36c-3.13-3.14-4.68-3.55-13.19-8-7.15-3.72-12.25-6.37-17.66-9.84a148.26,148.26,0,0,1-16.8-12.75,145.81,145.81,0,0,1-15.92-15.67c-5.42-6.24-9.91-11.41-14.65-20.24a76.5,76.5,0,0,1-8.22-20.73c-1.13-5-2.91-12.89-1.32-21.31,1.8-9.56,6.74-13.45,8.23-14.57,5.92-4.46,12-2.25,14.49-1.31a22.24,22.24,0,0,1,10.18,7.4c4.42,5.55,5.42,11.17,9.14,21.72,3.29,9.38,6.18,15.4,12,27.44a218.27,218.27,0,0,0,15.15,27.59,151.47,151.47,0,0,0,19.19,23.65c10.12,10.37,18.3,15.87,26.19,21.09A162.25,162.25,0,0,0,237,499.38a130,130,0,0,0,29.69,7.05l1.28-5.74a140,140,0,0,1-29.83-9,146.23,146.23,0,0,1-29.32-16.16c-11.68-8.26-18.8-13.3-27.09-24.44A136.07,136.07,0,0,1,164,417.75a167.51,167.51,0,0,1-7.69-29.07,177.87,177.87,0,0,1-2.46-24.62c-.56-14.43,1-14.69.51-29.12-.37-11.49-.74-20.85-4.74-31.23a61,61,0,0,0-6.68-12.53c-7.55-10.82-15.65-13.79-19.1-15-7.59-2.77-13.1-1.2-19.21.67-5.78,1.75-17.78,5.66-28,21.24a73.78,73.78,0,0,0-12,30.62,100.82,100.82,0,0,0-.82,28.4c1.92,17.42,7.66,30.15,11.51,38.51A128.43,128.43,0,0,0,99,430.63c4.83,5.31,14,15.36,26.48,23,4.38,2.67,9.74,5.39,16.64,12.39,7.23,7.33,9.73,12.84,10.84,15.64,1.37,3.47,4.41,11.13,3.17,19.24" transform="translate(-4.26 -3.16)"/><text class="cls-10" transform="translate(845.45 323.45)"><tspan class="cls-11">L</tspan><tspan x="5.5" y="0">o</tspan><tspan class="cls-12" x="12.08" y="0">r</tspan><tspan x="15.89" y="0">em ipsum</tspan></text></svg>